<svg width="36" height="36" viewBox="0 0 36 36" fill="none" xmlns="http://www.w3.org/2000/svg">
<g id="Heart">
<circle id="Ellipse 6" cx="18" cy="18" r="18" fill="black" fill-opacity="0.21"/>
<g id="Union">
<mask id="path-2-inside-1_45_586" fill="white">
<path fill-rule="evenodd" clip-rule="evenodd" d="M9.41637 11.5239C7.52788 13.5559 7.52788 16.8503 9.41637 18.8822L17.8906 28L19.6949 26.0586L19.7031 26.0674L26.3786 18.8848C28.2676 16.8524 28.2676 13.5572 26.3786 11.5248C24.4897 9.49236 21.4271 9.49236 19.5381 11.5248L17.897 13.2905L16.2552 11.5239C14.3667 9.49202 11.3049 9.49202 9.41637 11.5239Z"/>
</mask>
<path d="M9.41637 18.8822L7.9514 20.2438H7.9514L9.41637 18.8822ZM9.41637 11.5239L7.9514 10.1624L9.41637 11.5239ZM17.8906 28L16.4256 29.3616L17.8906 30.9378L19.3555 29.3616L17.8906 28ZM19.6949 26.0586L21.1599 24.697L19.695 23.1207L18.23 24.697L19.6949 26.0586ZM19.7031 26.0674L18.2381 27.4289L19.7031 29.0052L21.1681 27.4289L19.7031 26.0674ZM26.3786 18.8848L27.8436 20.2464L27.8436 20.2464L26.3786 18.8848ZM26.3786 11.5248L24.9136 12.8863L24.9136 12.8863L26.3786 11.5248ZM19.5381 11.5248L21.0031 12.8863V12.8863L19.5381 11.5248ZM17.897 13.2905L16.4321 14.652L17.897 16.2283L19.362 14.652L17.897 13.2905ZM16.2552 11.5239L17.7202 10.1624V10.1624L16.2552 11.5239ZM10.8813 17.5206C9.70622 16.2563 9.70622 14.1499 10.8813 12.8855L7.9514 10.1624C5.34953 12.9619 5.34953 17.4443 7.9514 20.2438L10.8813 17.5206ZM19.3555 26.6384L10.8813 17.5206L7.9514 20.2438L16.4256 29.3616L19.3555 26.6384ZM18.23 24.697L16.4256 26.6384L19.3555 29.3616L21.1599 27.4201L18.23 24.697ZM21.1681 24.7058L21.1599 24.697L18.2299 27.4201L18.2381 27.4289L21.1681 24.7058ZM24.9136 17.5233L18.2381 24.7058L21.1681 27.4289L27.8436 20.2464L24.9136 17.5233ZM24.9136 12.8863C26.0892 14.1512 26.0892 16.2584 24.9136 17.5233L27.8436 20.2464C30.4459 17.4464 30.4459 12.9632 27.8436 10.1632L24.9136 12.8863ZM21.0031 12.8863C22.1009 11.7052 23.8158 11.7052 24.9136 12.8863L27.8436 10.1632C25.1635 7.27955 20.7532 7.27955 18.0731 10.1632L21.0031 12.8863ZM19.362 14.652L21.0031 12.8863L18.0731 10.1632L16.4321 11.9289L19.362 14.652ZM14.7903 12.8855L16.4321 14.652L19.362 11.9289L17.7202 10.1624L14.7903 12.8855ZM10.8813 12.8855C11.9787 11.7048 13.6929 11.7048 14.7903 12.8855L17.7202 10.1624C15.0405 7.27921 10.6311 7.2792 7.9514 10.1624L10.8813 12.8855Z" fill="white" mask="url(#path-2-inside-1_45_586)"/>
</g>
</g>
</svg>
