<svg width="37" height="34" viewBox="0 0 37 34" fill="none" xmlns="http://www.w3.org/2000/svg">
<g id="Heart">
<mask id="path-1-inside-1_48_669" fill="white">
<path fill-rule="evenodd" clip-rule="evenodd" d="M2.64738 2.84845C-0.882457 6.64638 -0.882463 12.804 2.64738 16.602L18.4867 33.6443L21.8593 30.0155L21.8746 30.0319L34.352 16.6069C37.8827 12.808 37.8827 6.64887 34.352 2.85002C30.8213 -0.948836 25.0969 -0.948831 21.5662 2.85002L18.4989 6.15032L15.4301 2.84845C11.9002 -0.949484 6.17722 -0.949482 2.64738 2.84845Z"/>
</mask>
<path fill-rule="evenodd" clip-rule="evenodd" d="M2.64738 2.84845C-0.882457 6.64638 -0.882463 12.804 2.64738 16.602L18.4867 33.6443L21.8593 30.0155L21.8746 30.0319L34.352 16.6069C37.8827 12.808 37.8827 6.64887 34.352 2.85002C30.8213 -0.948836 25.0969 -0.948831 21.5662 2.85002L18.4989 6.15032L15.4301 2.84845C11.9002 -0.949484 6.17722 -0.949482 2.64738 2.84845Z" fill="white"/>
<path d="M2.64738 16.602L0.449917 18.6443H0.449917L2.64738 16.602ZM2.64738 2.84845L0.449924 0.806106L0.449924 0.806106L2.64738 2.84845ZM18.4867 33.6443L16.2892 35.6866L18.4867 38.051L20.6842 35.6866L18.4867 33.6443ZM21.8593 30.0155L24.0567 27.9731L21.8592 25.6089L19.6619 27.9732L21.8593 30.0155ZM21.8746 30.0319L19.6772 32.0744L21.8747 34.4386L24.072 32.0743L21.8746 30.0319ZM34.352 16.6069L36.5495 18.6492L34.352 16.6069ZM21.5662 2.85002L19.3687 0.807679L21.5662 2.85002ZM18.4989 6.15032L16.3014 8.19266L18.4989 10.557L20.6963 8.19266L18.4989 6.15032ZM15.4301 2.84845L13.2326 4.89079L15.4301 2.84845ZM4.84484 14.5596C2.38505 11.913 2.38505 7.5374 4.84484 4.89079L0.449924 0.806106C-4.14997 5.75536 -4.14998 13.6951 0.449917 18.6443L4.84484 14.5596ZM20.6842 31.602L4.84484 14.5596L0.449917 18.6443L16.2892 35.6866L20.6842 31.602ZM19.6619 27.9732L16.2892 31.602L20.6842 35.6866L24.0568 32.0579L19.6619 27.9732ZM24.072 27.9895L24.0567 27.9731L19.6619 32.058L19.6772 32.0744L24.072 27.9895ZM32.1545 14.5645L19.6771 27.9896L24.072 32.0743L36.5495 18.6492L32.1545 14.5645ZM32.1545 4.89236C34.6152 7.53989 34.6152 11.917 32.1545 14.5645L36.5495 18.6492C41.1502 13.699 41.1502 5.75785 36.5494 0.807674L32.1545 4.89236ZM23.7637 4.89237C26.1076 2.37039 29.8106 2.37039 32.1545 4.89236L36.5494 0.807674C31.832 -4.26806 24.0862 -4.26805 19.3687 0.807679L23.7637 4.89237ZM20.6963 8.19266L23.7637 4.89237L19.3687 0.807679L16.3014 4.10798L20.6963 8.19266ZM13.2326 4.89079L16.3014 8.19266L20.6963 4.10798L17.6275 0.806104L13.2326 4.89079ZM4.84484 4.89079C7.18794 2.36974 10.8895 2.36974 13.2326 4.89079L17.6275 0.806104C12.9109 -4.2687 5.16651 -4.2687 0.449924 0.806106L4.84484 4.89079Z" fill="black" mask="url(#path-1-inside-1_48_669)"/>
</g>
</svg>
