<svg width="40" height="40" viewBox="0 0 40 40" fill="none" xmlns="http://www.w3.org/2000/svg">
<g id="kitchen">
<mask id="mask0_48_642" style="mask-type:alpha" maskUnits="userSpaceOnUse" x="0" y="0" width="40" height="40">
<rect id="Bounding box" width="40" height="40" fill="#D9D9D9"/>
</mask>
<g mask="url(#mask0_48_642)">
<path id="kitchen_2" d="M13.3333 13.3333V8.33333H16.6667V13.3333H13.3333ZM13.3333 28.3333V20H16.6667V28.3333H13.3333ZM9.99999 36.6667C9.08332 36.6667 8.2986 36.3403 7.64582 35.6875C6.99305 35.0347 6.66666 34.25 6.66666 33.3333V6.66666C6.66666 5.74999 6.99305 4.96527 7.64582 4.31249C8.2986 3.65972 9.08332 3.33333 9.99999 3.33333H30C30.9167 3.33333 31.7014 3.65972 32.3542 4.31249C33.0069 4.96527 33.3333 5.74999 33.3333 6.66666V33.3333C33.3333 34.25 33.0069 35.0347 32.3542 35.6875C31.7014 36.3403 30.9167 36.6667 30 36.6667H9.99999ZM9.99999 33.3333H30V18.3333H9.99999V33.3333ZM9.99999 15H30V6.66666H9.99999V15Z" fill="#1C1B1F"/>
</g>
</g>
</svg>
