<svg width="39" height="40" viewBox="0 0 39 40" fill="none" xmlns="http://www.w3.org/2000/svg">
<g id="search">
<mask id="mask0_48_660" style="mask-type:alpha" maskUnits="userSpaceOnUse" x="0" y="0" width="39" height="40">
<rect id="Bounding box" x="0.907043" width="38.0291" height="40" fill="#D9D9D9"/>
</mask>
<g mask="url(#mask0_48_660)">
<path id="search_2" d="M31.9642 35L21.9815 24.5C21.1893 25.1667 20.2781 25.6944 19.2482 26.0833C18.2182 26.4722 17.1223 26.6667 15.9603 26.6667C13.0817 26.6667 10.6454 25.6181 8.65154 23.5208C6.65765 21.4236 5.66071 18.8611 5.66071 15.8333C5.66071 12.8056 6.65765 10.2431 8.65154 8.14583C10.6454 6.04861 13.0817 5 15.9603 5C18.8389 5 21.2751 6.04861 23.269 8.14583C25.2629 10.2431 26.2598 12.8056 26.2598 15.8333C26.2598 17.0556 26.0749 18.2083 25.7052 19.2917C25.3355 20.375 24.8337 21.3333 24.1999 22.1667L34.1825 32.6667L31.9642 35ZM15.9603 23.3333C17.9409 23.3333 19.6245 22.6042 21.011 21.1458C22.3975 19.6875 23.0907 17.9167 23.0907 15.8333C23.0907 13.75 22.3975 11.9792 21.011 10.5208C19.6245 9.0625 17.9409 8.33333 15.9603 8.33333C13.9796 8.33333 12.296 9.0625 10.9095 10.5208C9.52304 11.9792 8.8298 13.75 8.8298 15.8333C8.8298 17.9167 9.52304 19.6875 10.9095 21.1458C12.296 22.6042 13.9796 23.3333 15.9603 23.3333Z" fill="#1C1B1F"/>
</g>
</g>
</svg>
